<svg xmlns="http://www.w3.org/2000/svg" width="32" height="32" class="uil-hourglass" preserveAspectRatio="xMidYMid" viewBox="0 0 100 100"><rect width="100" height="100" x="0" y="0" fill="none" class="bk"/><g><path fill="none" stroke="#363A5C" stroke-miterlimit="10" stroke-width="5" d="M58.4,51.7c-0.9-0.9-1.4-2-1.4-2.3s0.5-0.4,1.4-1.4 C70.8,43.8,79.8,30.5,80,15.5H70H30H20c0.2,15,9.2,28.1,21.6,32.3c0.9,0.9,1.4,1.2,1.4,1.5s-0.5,1.6-1.4,2.5 C29.2,56.1,20.2,69.5,20,85.5h10h40h10C79.8,69.5,70.8,55.9,58.4,51.7z" class="glass"/><clipPath id="uil-hourglass-clip1"><rect width="70" height="25" x="15" y="20" class="clip"><animate attributeName="height" dur="1s" from="25" keyTimes="0;0.5;1" repeatCount="indefinite" to="0" vlaues="25;0;0"/><animate attributeName="y" dur="1s" from="20" keyTimes="0;0.5;1" repeatCount="indefinite" to="45" vlaues="20;45;45"/></rect></clipPath><clipPath id="uil-hourglass-clip2"><rect width="70" height="25" x="15" y="55" class="clip"><animate attributeName="height" dur="1s" from="0" keyTimes="0;0.5;1" repeatCount="indefinite" to="25" vlaues="0;25;25"/><animate attributeName="y" dur="1s" from="80" keyTimes="0;0.5;1" repeatCount="indefinite" to="55" vlaues="80;55;55"/></rect></clipPath><path fill="#5F69E0" d="M29,23c3.1,11.4,11.3,19.5,21,19.5S67.9,34.4,71,23H29z" class="sand" clip-path="url(#uil-hourglass-clip1)"/><path fill="#5F69E0" d="M71.6,78c-3-11.6-11.5-20-21.5-20s-18.5,8.4-21.5,20H71.6z" class="sand" clip-path="url(#uil-hourglass-clip2)"/><animateTransform attributeName="transform" dur="1s" from="0 50 50" keyTimes="0;0.7;1" repeatCount="indefinite" to="180 50 50" type="rotate" values="0 50 50;0 50 50;180 50 50"/></g></svg>